# This file uses centimeters as units for non-parametric coordinates.

mtllib MODEL_ranunculusSeedling_G4_1.mtl
g default
v -9.628843 4.601141 0.000000
v -3.646513 4.601141 0.000000
v -9.628843 10.583471 0.000000
v -3.646513 10.583471 0.000000
vt 0.155976 0.303008
vt 0.325228 0.303008
vt 0.155976 0.472262
vt 0.325228 0.472262
vn 0.000000 0.000000 1.000000
vn 0.000000 0.000000 1.000000
vn 0.000000 0.000000 1.000000
vn 0.000000 0.000000 1.000000
s off
g geo_roots_plane1 geo_seedling_low1
usemtl lambert2SG
f 1/1/1 2/2/2 4/4/3 3/3/4
g default
v -6.057535 7.522961 0.061268
v -6.153883 8.305630 0.047550
v -6.841570 7.414298 0.032616
v -6.940096 8.198380 0.013837
vt 0.044130 0.101917
vt 0.044102 0.131579
vt 0.015030 0.131562
vt 0.015058 0.101901
vn -0.041811 0.015521 0.999005
vn -0.041811 0.015521 0.999005
vn -0.041811 0.015521 0.999005
vn -0.041811 0.015521 0.999005
s off
g geo_seedling_low1 geo_leaf3
usemtl lambert2SG
f 6/6/5 8/7/6 7/8/7 5/5/8
g default
v -5.686655 7.255693 1.083567
v -4.127012 8.062459 1.842967
v -5.621355 8.318961 -0.180137
v -4.061712 9.125728 0.579263
vt 0.725111 0.770818
vt 0.725057 0.846539
vt 0.667550 0.846497
vt 0.667604 0.770776
vn -0.577783 0.638996 0.507789
vn -0.577783 0.638996 0.507789
vn -0.577783 0.638996 0.507789
vn -0.577783 0.638996 0.507789
s off
g geo_seedling_low1 geo_leaf1
usemtl lambert2SG
f 10/10/9 12/11/10 11/12/11 9/9/12
g default
v -5.287653 8.308215 -0.666914
v -5.026817 10.080582 -1.326287
v -6.816431 8.295309 -1.282943
v -6.555597 10.067676 -1.954310
vt 0.724982 0.840719
vt 0.724927 0.916347
vt 0.667491 0.916305
vt 0.667545 0.840677
vn -0.352243 0.373930 0.857964
vn -0.352243 0.373930 0.857963
vn -0.352243 0.373930 0.857964
vn -0.352243 0.373930 0.857964
s off
g geo_seedling_low1 geo_leaf
usemtl lambert2SG
f 14/14/13 16/15/14 15/16/15 13/13/16
g default
v -7.577305 4.310958 0.021060
v -6.543203 4.283705 0.071963
v -7.547609 4.446951 0.007529
v -6.580053 4.764062 0.061095
v -7.547609 4.446951 -0.007529
v -6.580053 4.764062 -0.061095
v -7.577305 4.310958 -0.021060
v -6.543203 4.283705 -0.071963
v -6.988106 4.026390 0.135248
v -6.988106 4.026390 -0.135248
v -6.998260 4.715449 -0.157128
v -6.998260 4.715449 0.157128
v -7.615061 4.386084 0.007302
v -6.987207 4.377573 0.297618
v -6.449709 4.603962 0.083953
v -6.449709 4.603962 -0.083953
v -6.987207 4.377573 -0.297618
v -7.615061 4.386084 -0.007302
v -6.726347 4.116539 0.114221
v -6.702105 4.486721 0.308628
v -6.770975 4.760373 0.148566
v -6.770975 4.760373 -0.148566
v -6.702105 4.486721 -0.308628
v -6.726347 4.116539 -0.114221
v -7.232050 4.055084 0.082791
v -7.232050 4.055084 -0.082791
v -7.284250 4.380116 -0.139628
v -7.230570 4.596475 -0.097715
v -7.230570 4.596475 0.097715
v -7.284250 4.380116 0.139628
v -7.419744 4.147259 0.031997
v -7.419744 4.147259 -0.031997
v -7.475550 4.384444 -0.083288
v -7.376989 4.522673 -0.065866
v -7.376989 4.522673 0.065866
v -7.475550 4.384444 0.083288
v -6.335386 4.776064 0.077256
v -6.335386 4.776064 -0.077256
v -6.421354 4.875749 -0.060859
v -6.421354 4.875749 0.060859
v -6.225054 5.013080 0.087418
v -6.225054 5.013080 -0.087418
v -6.329527 5.051879 -0.065801
v -6.329527 5.051879 0.065801
v -6.193417 5.449670 0.064809
v -6.193417 5.449670 -0.064809
v -6.312784 5.449670 -0.048782
v -6.312784 5.449670 0.048782
v -6.193417 5.737840 0.083739
v -6.193417 5.737840 -0.045878
v -6.312784 5.737840 -0.029851
v -6.312784 5.737840 0.067713
v -6.209541 5.898326 0.089114
v -6.209541 5.898326 -0.033940
v -6.309216 5.898326 -0.018726
v -6.309216 5.898326 0.073899
v -5.479931 7.928252 0.468355
v -5.470049 7.981493 0.414858
v -5.520414 7.944264 0.403094
v -5.521460 7.883901 0.477808
v -7.278379 7.540017 0.108495
v -7.248335 7.550643 0.039966
v -7.281017 7.583483 0.114079
v -7.250973 7.594110 0.045550
v -6.208525 5.796057 0.089452
v -6.208525 5.897815 -0.107896
v -6.310232 5.897815 -0.092597
v -6.310232 5.796057 0.074154
v -5.919521 8.811575 -1.156205
v -5.986490 8.802711 -1.180846
v -5.978157 8.844994 -1.174532
v -5.931320 8.848438 -1.141004
v -6.433693 7.697131 0.048652
v -6.436186 7.694022 0.032461
v -6.510683 7.694489 0.032454
v -6.508821 7.696833 0.044641
v -6.795582 6.494843 0.078638
v -6.796900 6.660662 0.090896
v -6.781878 6.665975 0.007849
v -6.780560 6.500157 -0.004408
v -6.299200 6.617848 0.072929
v -6.300198 6.616605 -0.007380
v -6.389803 6.616791 0.001746
v -6.389057 6.617729 0.062196
v -6.092924 7.063319 -0.527220
v -6.180735 7.059773 -0.527897
v -6.176792 7.076993 -0.481048
v -6.098251 7.078371 -0.476766
v -5.836674 6.688961 0.266582
v -5.831732 6.715582 0.175025
v -5.856916 6.841052 0.178608
v -5.857439 6.810870 0.280774
vt 0.565500 0.726974
vt 0.557907 0.717387
vt 0.567518 0.713786
vt 0.573050 0.722569
vt 0.548505 0.759752
vt 0.555474 0.766001
vt 0.547644 0.773923
vt 0.538738 0.768897
vt 0.549722 0.707370
vt 0.544760 0.699229
vt 0.556737 0.695383
vt 0.558335 0.703097
vt 0.523029 0.749860
vt 0.538568 0.731466
vt 0.541811 0.732784
vt 0.526404 0.749872
vt 0.542992 0.712974
vt 0.538152 0.708978
vt 0.531350 0.759848
vt 0.538886 0.755396
vt 0.555895 0.730417
vt 0.549088 0.724411
vt 0.567350 0.702318
vt 0.568061 0.697376
vt 0.558370 0.779827
vt 0.578980 0.709310
vt 0.536510 0.728473
vt 0.538040 0.728349
vt 0.579751 0.718667
vt 0.582551 0.722941
vt 0.538874 0.719567
vt 0.520681 0.761268
vt 0.526726 0.754295
vt 0.549727 0.736354
vt 0.549501 0.731513
vt 0.543344 0.728488
vt 0.565914 0.779779
vt 0.586138 0.710767
vt 0.588850 0.720192
vt 0.587462 0.715781
vt 0.067106 0.259601
vt 0.051642 0.190611
vt 0.063844 0.259823
vt 0.064310 0.259895
vt 0.595983 0.719888
vt 0.575435 0.778555
vt 0.595563 0.715142
vt 0.595289 0.711311
vt 0.087305 0.162842
vt 0.110753 0.163744
vt 0.154382 0.015905
vt 0.158028 0.013652
vt 0.108531 0.257260
vt 0.089014 0.260314
vt 0.105320 0.256401
vt 0.108886 0.254942
vt 0.101329 0.023127
vt 0.104152 0.176912
vt 0.164403 0.097038
vt 0.160025 0.094829
vt 0.160627 0.095778
vt 0.101725 0.099193
vt 0.106771 0.172901
vt 0.164170 0.022404
vt 0.125155 0.131284
vt 0.122204 0.128611
vt 0.123013 0.129955
vt 0.125086 0.129787
vt 0.118479 0.016282
vt 0.621203 0.719948
vt 0.065093 0.192033
vt 0.061855 0.192786
vt 0.622577 0.715056
vt 0.068673 0.191604
vt 0.138982 0.014273
vt 0.050934 0.256770
vt 0.139954 0.126687
vt 0.142542 0.126439
vt 0.142656 0.013702
vt 0.631482 0.714101
vt 0.102366 0.097722
vt 0.163857 0.095222
vt 0.621355 0.723332
vt 0.587200 0.767121
vt 0.112742 0.258716
vt 0.090379 0.258437
vt 0.137823 0.008156
vt 0.610996 0.708606
vt 0.574562 0.774481
vt 0.596377 0.705174
vt 0.567295 0.775087
vt 0.587215 0.704865
vt 0.532935 0.753140
vt 0.557292 0.737345
vt 0.536471 0.718814
vt 0.522707 0.769088
vt 0.560670 0.772293
vt 0.580460 0.702891
vt 0.569422 0.737041
vt 0.527939 0.777235
vt 0.536653 0.783804
vt 0.546502 0.785909
vt 0.578529 0.731714
vt 0.538149 0.731801
vt 0.521844 0.752809
vt 0.541685 0.733359
vt 0.126188 0.128772
vt 0.122569 0.131461
vt 0.110223 0.256798
vt 0.105982 0.259040
vt 0.161163 0.097744
vt 0.156734 0.095077
vt 0.048949 0.190223
vt 0.064264 0.260367
vt 0.067730 0.259523
vt 0.067046 0.260226
vt 0.623904 0.726620
vt 0.120950 0.015292
vt 0.127055 0.016704
vt 0.629397 0.714972
vt 0.159026 0.054241
vt 0.162398 0.059091
vt 0.164637 0.060896
vt 0.101527 0.061159
vt 0.104204 0.055703
vt 0.155557 0.055492
vt 0.068046 0.218803
vt 0.070844 0.219271
vt 0.051217 0.230307
vt 0.047951 0.229842
vt 0.062651 0.219601
vt 0.064780 0.219178
vt 0.126708 0.061531
vt 0.139371 0.059239
vt 0.142610 0.058797
vt 0.119969 0.061214
vt 0.121775 0.061158
vt 0.124763 0.061395
vt 0.110489 0.210272
vt 0.114269 0.211848
vt 0.088159 0.211578
vt 0.090478 0.215638
vt 0.104736 0.216657
vt 0.107828 0.213922
vt 0.626372 0.718038
vt 0.624759 0.721243
vt 0.623602 0.724344
vt 0.047286 0.256255
vt 0.124548 0.015800
vt 0.072919 0.192436
vt 0.619003 0.720551
vt 0.596111 0.761385
vt 0.142129 0.007512
vt 0.165418 0.026570
vt 0.611359 0.715886
vt 0.625446 0.712679
vt 0.598471 0.765122
vt 0.090578 0.172838
vt 0.609314 0.718836
vt 0.106042 0.013683
vt 0.621147 0.712335
vt 0.589560 0.770859
vt 0.115794 0.164979
vt 0.612190 0.713125
vn -0.326608 0.733799 0.595706
vn -0.147484 -0.101920 0.983799
vn 0.303036 -0.005459 0.952964
vn 0.009139 0.786848 0.617079
vn -0.326608 0.733799 -0.595706
vn 0.009139 0.786848 -0.617079
vn 0.303036 -0.005459 -0.952964
vn -0.147484 -0.101919 -0.983799
vn -0.019039 -0.726356 0.687055
vn -0.019039 -0.726355 -0.687056
vn 0.429884 -0.671450 -0.603618
vn 0.429884 -0.671450 0.603618
vn -0.538813 0.014217 -0.842305
vn -0.538812 0.014216 0.842306
vn -0.488021 0.693078 0.530546
vn -0.488021 0.693079 -0.530544
vn -0.354950 -0.626552 0.693861
vn -0.354950 -0.626552 -0.693861
vn -0.377237 -0.044418 -0.925051
vn -0.495406 0.646647 -0.580018
vn -0.495406 0.646647 0.580018
vn -0.377237 -0.044418 0.925051
vn 0.777530 -0.430178 0.458687
vn 0.777530 -0.430178 -0.458687
vn 0.754287 -0.092054 -0.650060
vn 0.754287 -0.092053 0.650060
vn -0.550209 -0.388280 -0.739262
vn -0.550209 -0.388279 0.739263
vn 0.131213 0.752001 0.645970
vn 0.131213 0.752001 -0.645970
vn -0.457742 -0.503165 0.733006
vn -0.457742 -0.503165 -0.733006
vn -0.368481 -0.021518 -0.929386
vn -0.435875 0.658275 -0.613749
vn -0.435874 0.658275 0.613749
vn -0.368481 -0.021519 0.929386
vn 0.680158 -0.359819 -0.638683
vn 0.680158 -0.359819 0.638683
vn -0.498452 0.404321 -0.766858
vn -0.498452 0.404321 0.766858
vn 0.379891 0.075747 0.921925
vn 0.474662 0.098108 -0.874683
vn -0.518643 -0.019596 -0.854766
vn -0.452420 -0.021405 0.891548
vn -0.675893 0.150438 -0.721483
vn 0.810480 -0.167823 -0.561211
vn -0.675893 0.150438 0.721483
vn 0.810480 -0.167823 0.561211
vn 0.876955 -0.160365 -0.453027
vn 0.890937 -0.215586 0.399693
vn -0.769676 -0.167812 -0.615986
vn -0.815945 -0.222009 0.533802
vn 0.959146 -0.265126 0.098725
vn 0.916370 -0.164913 -0.364788
vn -0.508238 0.343518 -0.789740
vn -0.779265 0.142955 0.610172
vn 0.289387 0.210211 -0.933845
vn -0.179590 0.212985 -0.960409
vn -0.556354 -0.209789 -0.804027
vn -0.785575 -0.359832 0.503381
vn 0.790606 0.412997 0.452080
vn 0.873551 0.463892 0.147354
vn -0.654438 0.111357 0.747870
vn 0.206322 0.116527 0.971521
vn 0.773797 -0.276346 -0.569976
vn -0.509575 -0.237110 -0.827111
vn -0.428283 0.376416 0.821514
vn 0.027934 0.366717 0.929913
vn -0.673609 -0.196181 -0.712575
vn -0.821340 -0.008417 0.570377
vn -0.664178 -0.050569 0.745862
vn -0.947524 0.272970 0.166393
vn 0.795773 0.074341 0.601015
vn 0.700698 0.091806 0.707527
vn 0.541510 -0.328292 -0.773945
vn 0.896140 0.294883 0.331629
vn 0.771066 -0.314810 0.553491
vn 0.857723 -0.151504 -0.491281
vn -0.820478 0.345211 -0.455680
vn -0.862343 0.183770 0.471798
vn -0.561058 -0.221345 -0.797634
vn -0.713029 -0.341254 0.612483
vn 0.650833 0.317084 0.689837
vn 0.811721 0.433665 -0.391208
vn 0.578977 -0.330303 -0.745443
vn -0.455827 -0.260723 -0.851026
vn -0.565155 0.349286 0.747395
vn 0.428998 0.286614 0.856629
vn 0.573754 0.088806 0.814199
vn 0.576832 0.098999 -0.810841
vn -0.568739 -0.036831 -0.821693
vn -0.569254 -0.048403 0.820736
s 1
g geo_seedling_low1
usemtl lambert2SG
f 28/17/17 30/18/18 36/19/19 37/20/20
f 27/115/21 28/17/17 37/20/20 38/119/22
f 38/22/22 39/23/23 33/24/24 27/21/21
f 25/25/25 26/26/26 40/27/27 35/28/28
f 34/120/29 29/30/30 19/31/31 21/122/32
f 41/33/33 42/34/34 26/26/26 25/25/25
f 43/35/35 44/36/36 27/21/21 33/24/24
f 44/110/36 45/37/37 28/17/17 27/115/21
f 45/37/37 46/38/38 30/18/18 28/17/17
f 46/38/38 41/33/33 25/25/25 30/18/18
f 35/28/28 36/19/19 30/18/18 25/25/25
f 18/39/39 24/40/40 32/114/41 31/42/42
f 26/116/26 33/24/24 39/23/23 40/117/27
f 42/112/34 43/35/35 33/24/24 26/116/26
f 23/43/43 17/44/44 29/30/30 34/120/29
f 31/42/42 36/19/19 35/28/28 18/39/39
f 37/20/20 36/19/19 31/42/42 20/45/45
f 38/119/22 37/20/20 20/45/45 22/46/46
f 32/41/41 39/23/23 38/22/22 22/113/46
f 40/117/27 39/23/23 32/41/41 24/118/40
f 35/28/28 40/27/27 24/40/40 18/39/39
f 47/47/47 48/111/48 42/34/34 41/33/33
f 48/48/48 49/49/49 43/35/35 42/112/34
f 49/49/49 50/109/50 44/36/36 43/35/35
f 50/50/50 51/51/51 45/37/37 44/110/36
f 51/51/51 52/52/52 46/38/38 45/37/37
f 52/52/52 47/47/47 41/33/33 46/38/38
f 23/43/43 48/111/48 47/47/47 17/44/44
f 34/29/29 49/49/49 48/48/48 23/121/43
f 21/32/32 50/109/50 49/49/49 34/29/29
f 19/31/31 51/51/51 50/50/50 21/122/32
f 29/30/30 52/52/52 51/51/51 19/31/31
f 17/44/44 47/47/47 52/52/52 29/30/30
f 31/42/42 32/114/41 54/108/53 53/54/54
f 32/41/41 22/113/46 55/107/55 54/53/53
f 22/46/46 20/45/45 56/56/56 55/55/55
f 20/45/45 31/42/42 53/54/54 56/56/56
f 89/57/57 90/132/58 91/130/59 92/60/60
f 54/53/53 55/107/55 59/105/61 58/62/62
f 55/55/55 56/56/56 60/63/63 59/61/61
f 56/56/56 53/54/54 57/64/64 60/63/63
f 57/64/64 58/106/62 62/104/65 61/180/66
f 58/62/62 59/105/61 63/100/67 62/178/65
f 59/61/61 60/63/63 64/171/68 63/175/67
f 60/63/63 57/64/64 61/180/66 64/171/68
f 73/69/69 74/126/70 75/71/71 76/72/72
f 62/178/65 63/100/67 67/168/73 66/173/74
f 78/75/75 77/127/76 79/77/77 80/98/78
f 64/171/68 61/180/66 65/177/79 68/167/80
f 85/81/81 86/124/82 87/83/83 88/84/84
f 83/133/85 84/86/86 72/162/87 71/163/88
f 84/86/86 81/89/89 69/161/90 72/162/87
f 81/89/89 82/96/91 70/136/92 69/161/90
f 105/155/93 106/156/94 74/101/70 73/125/69
f 106/157/94 107/158/95 75/102/71 74/70/70
f 107/159/95 108/160/96 76/72/72 75/71/71
f 108/160/96 105/155/93 73/125/69 76/72/72
f 96/142/97 93/137/98 77/76/76 78/128/75
f 93/137/98 94/138/99 79/77/77 77/76/76
f 94/138/99 95/139/100 80/98/78 79/77/77
f 95/140/100 96/141/97 78/97/75 80/78/78
f 66/172/74 82/96/91 81/89/89 65/177/79
f 66/103/74 67/169/73 83/95/85 82/91/91
f 67/99/73 68/167/80 84/86/86 83/133/85
f 68/167/80 65/177/79 81/89/89 84/86/86
f 101/150/101 102/151/102 86/94/82 85/93/81
f 102/152/102 103/153/103 87/83/83 86/82/82
f 103/153/103 104/154/104 88/84/84 87/83/83
f 104/154/104 101/149/101 85/123/81 88/84/84
f 53/54/54 54/108/53 58/106/62 57/64/64
f 97/143/105 98/144/106 90/131/58 89/57/57
f 98/145/106 99/146/107 91/129/59 90/58/58
f 99/147/107 100/148/108 92/60/60 91/59/59
f 100/148/108 97/143/105 89/57/57 92/60/60
f 64/68/68 68/80/80 94/138/99 93/137/98
f 68/80/80 67/170/73 95/139/100 94/138/99
f 67/73/73 63/176/67 96/141/97 95/140/100
f 63/67/67 64/68/68 93/137/98 96/142/97
f 69/90/90 70/166/92 98/144/106 97/143/105
f 70/92/92 71/164/88 99/146/107 98/145/106
f 71/88/88 72/87/87 100/148/108 99/147/107
f 72/87/87 69/90/90 97/143/105 100/148/108
f 82/91/91 83/95/85 102/151/102 101/150/101
f 83/85/85 71/134/88 103/153/103 102/152/102
f 71/134/88 70/165/92 104/154/104 103/153/103
f 70/165/92 82/135/91 101/149/101 104/154/104
f 61/66/66 62/179/65 106/156/94 105/155/93
f 62/65/65 66/174/74 107/158/95 106/157/94
f 66/74/74 65/79/79 108/160/96 107/159/95
f 65/79/79 61/66/66 105/155/93 108/160/96
g default
v -8.326675 8.802789 0.772080
v -7.501677 7.076689 0.768998
v -7.534912 9.183714 -0.627833
v -6.709913 7.457616 -0.630915
vt 0.669032 0.777664
vt 0.669463 0.701944
vt 0.726969 0.702271
vt 0.726539 0.777991
vn 0.764564 0.364479 0.531599
vn 0.764564 0.364479 0.531599
vn 0.764564 0.364479 0.531599
vn 0.764564 0.364479 0.531599
s off
g geo_seedling_low1 geo_leaf2
usemtl lambert2SG
f 110/182/109 112/183/110 111/184/111 109/181/112
g default
v -5.686655 7.255693 1.083567
v -4.127012 8.062459 1.842967
v -5.621355 8.318961 -0.180137
v -4.061712 9.125728 0.579263
vt 0.725111 0.770818
vt 0.725057 0.846539
vt 0.667550 0.846497
vt 0.667604 0.770776
vn -0.577783 0.638996 0.507789
vn -0.577783 0.638996 0.507789
vn -0.577783 0.638996 0.507789
vn -0.577783 0.638996 0.507789
s off
g geo_seedling_low1 geo_leaf1
f 114/186/113 116/187/114 115/188/115 113/185/116
g default
v -5.287653 8.308215 -0.666914
v -5.026817 10.080582 -1.326287
v -6.816431 8.295309 -1.282943
v -6.555597 10.067676 -1.954310
vt 0.724982 0.840719
vt 0.724927 0.916347
vt 0.667491 0.916305
vt 0.667545 0.840677
vn -0.352243 0.373930 0.857964
vn -0.352243 0.373930 0.857963
vn -0.352243 0.373930 0.857964
vn -0.352243 0.373930 0.857964
s off
g geo_seedling_low1 geo_leaf
f 118/190/117 120/191/118 119/192/119 117/189/120
g default
v -9.628843 -0.749254 0.000000
v -3.646515 -0.749254 0.000000
v -9.628843 5.233078 0.000000
v -3.646515 5.233078 0.000000
vt 0.154399 0.115947
vt 0.323652 0.115947
vt 0.154399 0.285200
vt 0.323652 0.285200
vn 0.000000 0.000000 1.000000
vn 0.000000 0.000000 1.000000
vn 0.000000 0.000000 1.000000
vn 0.000000 0.000000 1.000000
s off
g geo_seedling_low1 geo_roots_plane
usemtl lambert2SG
f 121/193/121 122/194/122 124/196/123 123/195/124
g default
v -6.057535 7.522961 0.061268
v -6.153883 8.305630 0.047550
v -6.841570 7.414298 0.032616
v -6.940096 8.198380 0.013837
vt 0.044130 0.101917
vt 0.044102 0.131579
vt 0.015030 0.131562
vt 0.015058 0.101901
vn -0.041811 0.015521 0.999005
vn -0.041811 0.015521 0.999005
vn -0.041811 0.015521 0.999005
vn -0.041811 0.015521 0.999005
s off
g geo_seedling_low1 geo_leaf3
f 126/198/125 128/199/126 127/200/127 125/197/128
g default
v -9.628843 4.601141 0.000000
v -3.646513 4.601141 0.000000
v -9.628843 10.583471 0.000000
v -3.646513 10.583471 0.000000
vt 0.155976 0.303008
vt 0.325228 0.303008
vt 0.155976 0.472262
vt 0.325228 0.472262
vn 0.000000 0.000000 1.000000
vn 0.000000 0.000000 1.000000
vn 0.000000 0.000000 1.000000
vn 0.000000 0.000000 1.000000
s off
g geo_roots_plane1 geo_seedling_low1
f 129/201/129 130/202/130 132/204/131 131/203/132
g default
v -8.326675 8.802789 0.772080
v -7.501677 7.076689 0.768998
v -7.534912 9.183714 -0.627833
v -6.709913 7.457616 -0.630915
vt 0.669032 0.777664
vt 0.669463 0.701944
vt 0.726969 0.702271
vt 0.726539 0.777991
vn 0.764564 0.364479 0.531599
vn 0.764564 0.364479 0.531599
vn 0.764564 0.364479 0.531599
vn 0.764564 0.364479 0.531599
s off
g geo_seedling_low1 geo_leaf2
f 134/206/133 136/207/134 135/208/135 133/205/136
g default
v -9.628843 -0.749254 0.000000
v -3.646515 -0.749254 0.000000
v -9.628843 5.233078 0.000000
v -3.646515 5.233078 0.000000
vt 0.154399 0.115947
vt 0.323652 0.115947
vt 0.154399 0.285200
vt 0.323652 0.285200
vn 0.000000 0.000000 1.000000
vn 0.000000 0.000000 1.000000
vn 0.000000 0.000000 1.000000
vn 0.000000 0.000000 1.000000
s off
g geo_seedling_low1 geo_roots_plane
f 137/209/137 138/210/138 140/212/139 139/211/140
