# This file uses centimeters as units for non-parametric coordinates.

mtllib MODEL_tablecloth_1.mtl
g default
v -111.408180 0.000000 111.408180
v 111.408180 0.000000 111.408180
v -111.408180 0.000000 -111.408180
v 111.408180 0.000000 -111.408180
vt 0.014877 0.014877
vt 0.985123 0.014877
vt 0.014877 0.985123
vt 0.985123 0.985123
vn 0.000000 1.000000 0.000000
vn 0.000000 1.000000 0.000000
vn 0.000000 1.000000 0.000000
vn 0.000000 1.000000 0.000000
s off
g pPlane1
usemtl initialShadingGroup
f 4/4/1 3/3/2 1/1/3 2/2/4
