# This file uses centimeters as units for non-parametric coordinates.

mtllib MODEL_waratahSeedling_2.mtl
g default
v 0.728596 0.455362 0.665747
v 0.125207 0.179211 -0.072208
v -0.651058 0.422422 0.505116
v 0.228531 2.042051 2.287458
v -0.194248 1.847170 2.329515
v -0.604763 2.022146 2.190429
v 0.752327 1.297256 1.468992
v -0.064340 1.428122 1.299640
v -0.890971 1.258011 1.277669
vt 0.444696 0.657081
vt 0.396262 0.655131
vt 0.395045 0.590868
vt 0.421714 0.591163
vt 0.347936 0.658913
vt 0.368407 0.592172
vt 0.398275 0.762138
vt 0.439553 0.723281
vt 0.355173 0.724870
vn 0.237362 0.752843 -0.613911
vn 0.055554 0.770379 -0.635161
vn 0.041060 0.848987 -0.526816
vn 0.010652 0.847864 -0.530106
vn -0.124811 0.744284 -0.656098
vn 0.071431 0.849314 -0.523032
vn 0.063467 0.713062 -0.698223
vn 0.337445 0.691372 -0.638855
vn -0.212478 0.679068 -0.702652
s 1
g geo_leaf8 gep_waratahSeedling
usemtl initialShadingGroup
f 7/1/1 8/2/2 5/3/3 4/4/4
f 8/2/2 9/5/5 6/6/6 5/3/3
f 2/7/7 8/2/2 7/1/1 1/8/8
f 3/9/9 9/5/5 8/2/2 2/7/7
g default
v -0.315456 5.866486 0.489277
v 0.146276 5.768488 0.015392
v -0.319642 5.917881 -0.445673
v -1.554240 6.815842 0.363775
v -1.602228 6.700804 0.074443
v -1.556752 6.846882 -0.200923
v -0.910951 6.362223 0.611235
v -0.875417 6.499069 0.060114
v -0.915938 6.423429 -0.502352
vt 0.444696 0.657081
vt 0.396262 0.655131
vt 0.395045 0.590868
vt 0.421714 0.591163
vt 0.347936 0.658913
vt 0.368407 0.592172
vt 0.398275 0.762138
vt 0.439553 0.723281
vt 0.355173 0.724870
vn 0.550023 0.804374 0.224626
vn 0.546839 0.836106 0.043510
vn 0.429415 0.901849 0.047652
vn 0.429074 0.903108 0.017077
vn 0.548407 0.824481 -0.139571
vn 0.429355 0.899746 0.078184
vn 0.616415 0.786421 0.039673
vn 0.593718 0.739995 0.316080
vn 0.590927 0.771182 -0.236819
s 1
g gep_waratahSeedling geo_leaf4
usemtl initialShadingGroup
f 16/10/10 17/11/11 14/12/12 13/13/13
f 17/11/11 18/14/14 15/15/15 14/12/12
f 11/16/16 17/11/11 16/10/10 10/17/17
f 12/18/18 18/14/14 17/11/11 11/16/16
g default
v 1.217858 1.910410 -0.534800
v 0.133253 1.630415 -0.054633
v 0.584912 1.908150 1.049652
v 3.082859 3.764376 0.571827
v 2.984778 3.531334 1.087172
v 2.700572 3.762999 1.528816
v 2.231962 2.891834 -0.308647
v 1.779306 3.079573 0.604973
v 1.478085 2.889162 1.578549
vt 0.444696 0.657081
vt 0.396262 0.655131
vt 0.395045 0.590868
vt 0.421714 0.591163
vt 0.347936 0.658913
vt 0.368407 0.592172
vt 0.398275 0.762138
vt 0.439553 0.723281
vt 0.355173 0.724870
vn -0.489708 0.779234 -0.391127
vn -0.556531 0.800845 -0.221178
vn -0.451612 0.874041 -0.179161
vn -0.462759 0.873589 -0.150655
vn -0.625023 0.778844 -0.052430
vn -0.440043 0.873674 -0.207499
vn -0.618356 0.746702 -0.245097
vn -0.491033 0.717470 -0.494089
vn -0.696211 0.717551 0.020250
s 1
g gep_waratahSeedling geo_leaf6
usemtl initialShadingGroup
f 25/19/19 26/20/20 23/21/21 22/22/22
f 26/20/20 27/23/23 24/24/24 23/21/21
f 20/25/25 26/20/20 25/19/19 19/26/26
f 21/27/27 27/23/23 26/20/20 20/25/25
g default
v 0.875015 6.319427 -1.130749
v 0.125394 5.685371 0.020590
v 1.175678 6.249414 0.964992
v 2.904964 9.213699 -0.906902
v 3.186969 8.945930 -0.309675
v 3.086555 9.171391 0.358903
v 1.760133 7.830479 -1.417414
v 1.783572 7.989441 -0.140298
v 2.118227 7.747063 1.078759
vt 0.444696 0.657081
vt 0.396262 0.655131
vt 0.395045 0.590868
vt 0.421714 0.591163
vt 0.347936 0.658913
vt 0.368407 0.592172
vt 0.398275 0.762138
vt 0.439553 0.723281
vt 0.355173 0.724870
vn -0.795385 0.604017 -0.050262
vn -0.773996 0.619336 0.131732
vn -0.684082 0.719101 0.122169
vn -0.679419 0.717752 0.152385
vn -0.743658 0.592043 0.310577
vn -0.688103 0.719777 0.091839
vn -0.823812 0.549970 0.137361
vn -0.831142 0.537243 -0.143433
vn -0.752499 0.519791 0.404429
s 1
g gep_waratahSeedling geo_leaf1
usemtl initialShadingGroup
f 34/28/28 35/29/29 32/30/30 31/31/31
f 35/29/29 36/32/32 33/33/33 32/30/30
f 29/34/34 35/29/29 34/28/28 28/35/35
f 30/36/36 36/32/32 35/29/29 29/34/34
g default
v -3.829357 -8.136545 -0.064677
v 3.332914 -8.136545 -0.064677
v -3.829357 0.501718 -0.057919
v 3.332914 0.501718 -0.057919
vt 0.096616 0.257466
vt 0.096609 0.015169
vt 0.388845 0.257457
vt 0.388838 0.015160
vn 0.000000 -0.000782 1.000000
vn 0.000000 -0.000782 1.000000
vn 0.000000 -0.000782 1.000000
vn 0.000000 -0.000782 1.000000
s off
g gep_waratahSeedling roots
usemtl initialShadingGroup
f 37/37/37 38/38/38 40/40/39 39/39/40
g default
v -1.108542 4.903326 -1.534605
v -0.063228 4.259995 0.119855
v 1.690879 4.772663 -0.853635
v 0.384142 8.280939 -4.636329
v 1.259991 7.863476 -4.628310
v 2.074959 8.202013 -4.225030
v -0.926550 6.702667 -3.136397
v 0.715849 6.932430 -2.570048
v 2.407753 6.547014 -2.325320
vt 0.444696 0.657081
vt 0.396262 0.655131
vt 0.395045 0.590868
vt 0.421714 0.591163
vt 0.347936 0.658913
vt 0.368407 0.592172
vt 0.398275 0.762138
vt 0.439553 0.723281
vt 0.355173 0.724870
vn -0.300758 0.737509 0.604670
vn -0.122741 0.751075 0.648708
vn -0.093854 0.832750 0.545636
vn -0.064102 0.830974 0.552606
vn 0.053265 0.721073 0.690809
vn -0.123518 0.833747 0.538154
vn -0.139199 0.691970 0.708380
vn -0.404016 0.677114 0.615052
vn 0.133574 0.652856 0.745612
s 1
g gep_waratahSeedling geo_leaf2
usemtl initialShadingGroup
f 47/41/41 48/42/42 45/43/43 44/44/44
f 48/42/42 49/45/45 46/46/46 45/43/43
f 42/47/47 48/42/42 47/41/41 41/48/48
f 43/49/49 49/45/45 48/42/42 42/47/47
g default
v 0.005041 -0.277968 -0.020737
v 0.156094 -0.277808 0.075825
v -0.077428 5.736916 0.042626
v 0.073609 5.737072 0.139145
v 0.019090 5.737450 -0.108441
v 0.170141 5.737606 -0.011875
v 0.101572 -0.277418 -0.171759
v 0.252614 -0.277297 -0.075240
v 0.018247 2.478164 -0.000597
v 0.169286 2.478315 0.095924
v 0.265823 2.478838 -0.055089
v 0.114781 2.478687 -0.151610
v -0.015561 1.225752 -0.004871
v 0.135477 1.225906 0.091651
v 0.232007 1.226423 -0.059390
v 0.080957 1.226265 -0.155943
v -0.144091 4.233717 -0.085309
v 0.006946 4.233871 0.011209
v -0.089571 4.233355 0.162281
v -0.240620 4.233196 0.065727
vt 0.418320 0.049205
vt 0.430558 0.043175
vt 0.421960 0.253555
vt 0.434429 0.259700
vt 0.427973 0.254065
vt 0.434001 0.253641
vt 0.430457 0.049246
vt 0.436522 0.049350
vt 0.424391 0.049252
vt 0.412251 0.049050
vt 0.436628 0.043279
vt 0.409858 0.253383
vt 0.428382 0.260120
vt 0.415918 0.253002
vt 0.417200 0.142772
vt 0.423274 0.142588
vt 0.429305 0.142354
vt 0.411134 0.142384
vt 0.435331 0.142683
vt 0.417697 0.100063
vt 0.423754 0.100190
vt 0.429830 0.100255
vt 0.411639 0.099984
vt 0.435906 0.100270
vt 0.410475 0.202260
vt 0.434673 0.202554
vt 0.428605 0.202402
vt 0.422532 0.202447
vt 0.416502 0.202450
vn -0.973395 -0.080111 0.214672
vn 0.257960 -0.001047 0.966155
vn 0.157136 -0.009559 0.987531
vn -0.976282 -0.030362 0.214365
vn -0.002340 0.999995 0.002040
vn -0.002340 0.999995 0.002040
vn -0.002340 0.999995 0.002040
vn -0.002340 0.999995 0.002040
vn -0.272244 0.003687 -0.962221
vn 0.975988 0.032519 -0.215382
vn 0.973948 0.075468 -0.213844
vn -0.171708 0.012612 -0.985067
vn 0.002256 -0.999995 -0.002072
vn 0.002256 -0.999995 -0.002072
vn 0.002256 -0.999995 -0.002072
vn 0.002256 -0.999995 -0.002072
vn -0.976623 0.003044 0.214937
vn 0.206263 -0.008064 0.978463
vn 0.976570 -0.003168 -0.215175
vn -0.223794 0.008264 -0.974602
vn -0.977043 -0.015631 0.212468
vn 0.220741 -0.007249 0.975305
vn 0.975919 0.015667 -0.217569
vn -0.209311 0.007430 -0.977821
vn -0.165975 0.002856 -0.986126
vn 0.971472 -0.108665 -0.210794
vn 0.263867 -0.013810 0.964460
vn -0.970161 0.108617 0.216772
s 1
g gep_waratahSeedling geo_stalk
usemtl initialShadingGroup
f 58/64/50 59/65/51 68/77/52 69/78/53
s off
f 52/53/54 53/62/55 55/54/56 54/55/57
s 1
f 66/75/58 67/76/59 60/66/60 61/68/61
s off
f 56/57/62 57/56/63 51/51/64 50/60/65
s 1
f 59/65/51 60/66/60 67/76/59 68/77/52
f 61/67/61 58/64/50 69/78/53 66/74/58
f 62/69/66 63/70/67 59/65/51 58/64/50
f 63/70/67 64/71/68 60/66/60 59/65/51
f 61/68/61 60/66/60 64/71/68 65/73/69
f 65/72/69 62/69/66 58/64/50 61/67/61
f 50/50/70 51/58/71 63/70/67 62/69/66
f 51/58/71 57/56/72 64/71/68 63/70/67
f 65/73/69 64/71/68 57/56/72 56/57/73
f 56/59/73 50/50/70 62/69/66 65/72/69
f 54/55/74 55/54/75 67/76/59 66/75/58
f 68/77/52 67/76/59 55/54/75 53/52/76
f 69/78/53 68/77/52 53/52/76 52/63/77
f 66/74/58 69/78/53 52/63/77 54/61/74
g default
v -1.178965 4.080803 1.020773
v 0.138466 3.912495 0.113359
v -0.793087 4.076645 -1.197825
v -4.275470 5.981768 0.032063
v -4.232996 5.655163 -0.650207
v -4.042381 5.979273 -1.307933
v -2.757013 5.112997 0.968736
v -2.466939 5.375269 -0.342527
v -2.297443 5.108040 -1.673759
vt 0.444696 0.657081
vt 0.396262 0.655131
vt 0.395045 0.590868
vt 0.421714 0.591163
vt 0.347936 0.658913
vt 0.368407 0.592172
vt 0.398275 0.762138
vt 0.439553 0.723281
vt 0.355173 0.724870
vn 0.413047 0.874128 0.255523
vn 0.439531 0.895111 0.074766
vn 0.317093 0.946891 0.053378
vn 0.322183 0.946393 0.023204
vn 0.475544 0.873546 -0.103807
vn 0.311706 0.946502 0.083504
vn 0.513449 0.853709 0.086892
vn 0.445878 0.820470 0.357802
vn 0.540359 0.820202 -0.187832
s 1
g gep_waratahSeedling geo_leaf10
usemtl initialShadingGroup
f 76/79/78 77/80/79 74/81/80 73/82/81
f 77/80/79 78/83/82 75/84/83 74/81/80
f 71/85/84 77/80/79 76/79/78 70/86/85
f 72/87/86 78/83/82 77/80/79 71/85/84
g default
v -0.388573 1.075390 0.512076
v 0.129912 0.817842 -0.059869
v -0.387172 1.100954 -0.626959
v -1.608213 2.526350 0.320432
v -1.697996 2.391314 -0.026845
v -1.607369 2.541786 -0.367527
v -0.962982 1.826738 0.640070
v -0.888725 1.958141 -0.035568
v -0.961311 1.857153 -0.716591
vt 0.444696 0.657081
vt 0.396262 0.655131
vt 0.395045 0.590868
vt 0.421714 0.591163
vt 0.347936 0.658913
vt 0.368407 0.592172
vt 0.398275 0.762138
vt 0.439553 0.723281
vt 0.355173 0.724870
vn 0.713820 0.671584 0.198585
vn 0.716479 0.697412 0.016525
vn 0.616271 0.787319 0.018414
vn 0.616019 0.787638 -0.012148
vn 0.714298 0.679851 -0.166074
vn 0.615948 0.786264 0.048958
vn 0.773504 0.633628 0.014378
vn 0.742991 0.602190 0.292116
vn 0.743537 0.615453 -0.261477
s 1
g gep_waratahSeedling geo_leaf11
usemtl initialShadingGroup
f 85/88/87 86/89/88 83/90/89 82/91/90
f 86/89/88 87/92/91 84/93/92 83/90/89
f 80/94/93 86/89/88 85/88/87 79/95/94
f 81/96/95 87/92/91 86/89/88 80/94/93
