# This file uses centimeters as units for non-parametric coordinates.

mtllib MODLE_waratahSeed_2.mtl
g default
v -0.380165 -0.490992 -0.016353
v 0.242241 -0.551384 0.035293
v 0.257568 -0.228959 0.027493
v 0.257568 -0.228959 -0.060198
v 0.242241 -0.551384 -0.067998
v -0.072083 -0.720875 0.080710
v -0.072083 -0.720875 -0.113415
v -0.052109 -0.237229 -0.129118
v -0.052109 -0.237229 0.096413
v -0.033424 -0.506918 0.197237
v 0.351204 -0.344058 0.043897
v 0.351204 -0.344058 -0.076603
v -0.033424 -0.506918 -0.229943
v 0.110809 -0.675629 0.065620
v 0.170547 -0.430764 0.205139
v 0.112053 -0.202898 0.090268
v 0.112053 -0.202898 -0.122973
v 0.170547 -0.430764 -0.237844
v 0.110809 -0.675629 -0.098325
v -0.245064 -0.697907 0.043064
v -0.245064 -0.697907 -0.075769
v -0.245094 -0.506804 -0.116559
v -0.219490 -0.325766 -0.086479
v -0.219490 -0.325766 0.053774
v -0.245094 -0.506804 0.083853
v 0.770988 0.632944 -0.013170
v 0.770988 0.632944 -0.019536
v 0.758026 0.648736 -0.018748
v 0.758026 0.648736 -0.013957
v 0.116272 -0.554627 -0.016561
v 0.759392 0.641671 -0.016561
v -0.376991 -0.491378 -0.016561
v 0.076256 1.159065 -0.016561
vt 0.309238 0.684209
vt 0.318667 0.681740
vt 0.318578 0.689155
vt 0.310232 0.690640
vt 0.301309 0.683710
vt 0.302611 0.691576
vt 0.256251 0.742384
vt 0.256750 0.732810
vt 0.264287 0.731293
vt 0.263494 0.742461
vt 0.325785 0.677434
vt 0.332376 0.675149
vt 0.333003 0.684345
vt 0.327273 0.684179
vt 0.298103 0.732471
vt 0.298230 0.732677
vt 0.297188 0.732392
vt 0.297370 0.732371
vt 0.313762 0.667389
vt 0.323191 0.671846
vt 0.326291 0.668582
vt 0.272973 0.732582
vt 0.271311 0.739977
vt 0.304860 0.675146
vt 0.309582 0.676748
vt 0.316086 0.673737
vt 0.325615 0.691015
vt 0.329022 0.692466
vt 0.322013 0.700418
vt 0.317940 0.697908
vt 0.267762 0.722667
vt 0.259663 0.722377
vt 0.274661 0.725040
vt 0.312052 0.696620
vt 0.308510 0.696703
vt 0.247616 0.734683
vt 0.249914 0.740150
vt 0.252627 0.725961
vt 0.221430 0.767519
vt 0.221122 0.766779
vt 0.279368 0.734185
vt 0.294389 0.748476
vt 0.343870 0.729935
vt 0.360246 0.758975
vt 0.294249 0.767823
vn -0.328538 0.732505 0.596237
vn -0.148604 -0.100022 0.983825
vn 0.303361 -0.008602 0.952837
vn 0.007852 0.785825 0.618399
vn -0.328538 0.732506 -0.596236
vn -0.328538 0.732505 0.596237
vn 0.007852 0.785825 0.618399
vn 0.007853 0.785825 -0.618399
vn 0.007853 0.785825 -0.618399
vn 0.303361 -0.008602 -0.952837
vn -0.148605 -0.100022 -0.983825
vn -0.328538 0.732506 -0.596236
vn -0.024751 -0.727609 0.685546
vn -0.024750 -0.727609 -0.685545
vn 0.428456 -0.674563 -0.601158
vn 0.428456 -0.674563 0.601158
vn 0.473527 -0.164401 0.865300
vn 0.473528 -0.164402 -0.865300
vn -0.188491 0.480106 -0.856720
vn -0.188490 0.480106 0.856720
vn -0.361506 -0.624363 0.692448
vn -0.361506 -0.624363 -0.692448
vn -0.024750 -0.727609 -0.685545
vn -0.024751 -0.727609 0.685546
vn -0.380185 -0.043811 -0.923872
vn -0.496894 0.646418 -0.578999
vn -0.328538 0.732506 -0.596236
vn -0.148605 -0.100022 -0.983825
vn -0.496894 0.646418 -0.578999
vn -0.496894 0.646417 0.579000
vn -0.328538 0.732505 0.596237
vn -0.328538 0.732506 -0.596236
vn -0.496894 0.646417 0.579000
vn -0.380185 -0.043811 0.923872
vn -0.148604 -0.100022 0.983825
vn -0.328538 0.732505 0.596237
vn -0.380185 -0.043811 0.923872
vn -0.361506 -0.624363 0.692448
vn -0.024751 -0.727609 0.685546
vn -0.148604 -0.100022 0.983825
vn 0.428456 -0.674563 0.601158
vn 0.303361 -0.008602 0.952837
vn -0.148604 -0.100022 0.983825
vn -0.024751 -0.727609 0.685546
vn 0.781238 -0.427298 0.455064
vn 0.781238 -0.427297 -0.455066
vn 0.746566 -0.056030 -0.662948
vn 0.746566 -0.056030 0.662948
vn -0.024750 -0.727609 -0.685545
vn -0.148605 -0.100022 -0.983825
vn 0.303361 -0.008602 -0.952837
vn 0.428456 -0.674563 -0.601158
vn -0.361506 -0.624363 -0.692448
vn -0.380185 -0.043811 -0.923872
vn -0.148605 -0.100022 -0.983825
vn -0.024750 -0.727609 -0.685545
vn 0.746566 -0.056030 0.662948
vn 0.303361 -0.008602 0.952837
vn 0.428456 -0.674563 0.601158
vn 0.781238 -0.427298 0.455064
vn 0.007852 0.785825 0.618399
vn 0.303361 -0.008602 0.952837
vn 0.746566 -0.056030 0.662948
vn 0.182711 0.733207 0.654999
vn 0.007853 0.785825 -0.618399
vn 0.007852 0.785825 0.618399
vn 0.182711 0.733207 0.654999
vn 0.182711 0.733207 -0.654999
vn 0.746566 -0.056030 -0.662948
vn 0.303361 -0.008602 -0.952837
vn 0.007853 0.785825 -0.618399
vn 0.182711 0.733207 -0.654999
vn 0.428456 -0.674563 -0.601158
vn 0.303361 -0.008602 -0.952837
vn 0.746566 -0.056030 -0.662948
vn 0.781238 -0.427297 -0.455066
vn 0.428456 -0.674563 0.601158
vn 0.428456 -0.674563 -0.601158
vn 0.781238 -0.427297 -0.455066
vn 0.781238 -0.427298 0.455064
vn -0.361506 -0.624363 -0.692448
vn -0.361506 -0.624363 0.692448
vn -0.544541 -0.394689 -0.740065
vn -0.380185 -0.043811 -0.923872
vn -0.361506 -0.624363 -0.692448
vn -0.537530 0.010913 -0.843174
vn -0.496894 0.646418 -0.578999
vn -0.380185 -0.043811 -0.923872
vn -0.483564 0.689239 -0.539551
vn -0.496894 0.646417 0.579000
vn -0.496894 0.646418 -0.578999
vn -0.483563 0.689238 0.539554
vn -0.380185 -0.043811 0.923872
vn -0.496894 0.646417 0.579000
vn -0.537527 0.010912 0.843176
vn -0.361506 -0.624363 0.692448
vn -0.380185 -0.043811 0.923872
vn -0.544539 -0.394688 0.740067
vn 0.473528 -0.164402 -0.865300
vn 0.473527 -0.164401 0.865300
vn 0.746566 -0.056030 0.662948
vn 0.746566 -0.056030 -0.662948
vn -0.188491 0.480106 -0.856720
vn 0.473528 -0.164402 -0.865300
vn 0.746566 -0.056030 -0.662948
vn 0.182711 0.733207 -0.654999
vn -0.188490 0.480106 0.856720
vn -0.188491 0.480106 -0.856720
vn 0.182711 0.733207 -0.654999
vn 0.182711 0.733207 0.654999
vn 0.473527 -0.164401 0.865300
vn -0.188490 0.480106 0.856720
vn 0.182711 0.733207 0.654999
vn 0.746566 -0.056030 0.662948
vn 0.746566 -0.056030 0.662948
vn 0.746566 -0.056030 -0.662948
vn -0.188491 0.480106 -0.856720
vn 0.473528 -0.164402 -0.865300
vn 0.746566 -0.056030 -0.662948
vn 0.182711 0.733207 -0.654999
vn -0.188490 0.480106 0.856720
vn -0.188491 0.480106 -0.856720
vn 0.182711 0.733207 -0.654999
vn 0.182711 0.733207 0.654999
vn 0.473527 -0.164401 0.865300
vn -0.188490 0.480106 0.856720
vn 0.182711 0.733207 0.654999
vn 0.746566 -0.056030 0.662948
s off
g geo_waratahSeed
usemtl MODEL_ranunculusSeed_G4_1:lambert2SG
f 9/1/1 10/2/2 15/3/3 16/4/4
f 8/5/5 9/1/6 16/4/7 17/6/8
f 17/7/9 18/8/10 13/9/11 8/10/12
f 6/11/13 7/12/14 19/13/15 14/14/16
f 26/15/17 27/16/18 28/17/19 29/18/20
f 20/20/21 21/21/22 7/12/23 6/11/24
f 22/22/25 23/23/26 8/10/27 13/9/28
f 23/24/29 24/25/30 9/1/31 8/5/32
f 24/25/33 25/26/34 10/2/35 9/1/36
f 25/26/37 20/20/38 6/11/39 10/2/40
f 14/14/41 15/3/42 10/2/43 6/11/44
f 2/27/45 5/28/46 12/29/47 11/30/48
f 7/31/49 13/9/50 18/8/51 19/32/52
f 21/33/53 22/22/54 13/9/55 7/31/56
f 11/30/57 15/3/58 14/14/59 2/27/60
f 16/4/61 15/3/62 11/30/63 3/34/64
f 17/6/65 16/4/66 3/34/67 4/35/68
f 12/36/69 18/8/70 17/7/71 4/37/72
f 19/32/73 18/8/74 12/36/75 5/38/76
f 14/14/77 19/13/78 5/28/79 2/27/80
f 21/21/81 20/20/82 1/19/83
f 22/22/84 21/33/85 1/41/86
f 23/23/87 22/22/88 1/41/89
f 24/25/90 23/24/91 1/19/92
f 25/26/93 24/25/94 1/19/95
f 20/20/96 25/26/97 1/19/98
f 27/16/99 26/15/100 11/30/101 12/29/102
f 28/39/103 27/40/104 12/36/105 4/37/106
f 29/18/107 28/17/108 4/35/109 3/34/110
f 26/15/111 29/18/112 3/34/113 11/30/114
f 30/42/115 31/43/116 33/44/117 32/45/118
