# This file uses centimeters as units for non-parametric coordinates.

mtllib MODEL_LongRoots1_1.mtl
g default
v -16.808247 0.034439 0.000000
v 16.999706 0.034439 -0.000000
v -16.808247 64.864609 0.000000
v 16.999706 64.864609 -0.000000
vt 0.016126 0.021504
vt 0.243522 0.021528
vt 0.016080 0.457559
vt 0.243476 0.457583
vn 0.000000 0.000000 1.000000
vn 0.000000 0.000000 1.000000
vn 0.000000 0.000000 1.000000
vn 0.000000 0.000000 1.000000
s off
g rootPlain_4
usemtl initialShadingGroup
f 1/1/1 2/2/2 4/4/3 3/3/4
