# This file uses centimeters as units for non-parametric coordinates.

mtllib MODEL_GrassRoots2_1.mtl
g default
v -13.656187 0.335012 0.000000
v 13.270504 0.335012 0.000000
v -13.656187 27.261705 0.000000
v 13.270504 27.261705 0.000000
vt 0.209913 0.540912
vt 0.391025 0.540912
vt 0.209913 0.722024
vt 0.391025 0.722024
vn 0.000000 0.000000 1.000000
vn 0.000000 0.000000 1.000000
vn 0.000000 0.000000 1.000000
vn 0.000000 0.000000 1.000000
s off
g plantPlain_6
usemtl initialShadingGroup
f 1/1/1 2/2/2 4/4/3 3/3/4
