# This file uses centimeters as units for non-parametric coordinates.

mtllib MODEL_GrassRoots3_1.mtl
g default
v -13.133656 0.335012 0.000000
v 13.793036 0.335012 0.000000
v -13.133656 27.261705 0.000000
v 13.793036 27.261705 0.000000
vt 0.408407 0.539559
vt 0.589519 0.539559
vt 0.408407 0.720671
vt 0.589519 0.720671
vn 0.000000 0.000000 1.000000
vn 0.000000 0.000000 1.000000
vn 0.000000 0.000000 1.000000
vn 0.000000 0.000000 1.000000
s off
g plantPlain_7
usemtl initialShadingGroup
f 1/1/1 2/2/2 4/4/3 3/3/4
