# This file uses centimeters as units for non-parametric coordinates.

mtllib MODEL_dandelion_1.mtl
g default
v -13.412251 -0.010461 0.000000
v 13.514439 -0.010461 0.000000
v -13.412251 26.916233 0.000000
v 13.514439 26.916233 0.000000
vt 0.014827 0.790286
vt 0.195939 0.790286
vt 0.014827 0.971398
vt 0.195939 0.971398
vn 0.000000 0.000000 1.000000
vn 0.000000 0.000000 1.000000
vn 0.000000 0.000000 1.000000
vn 0.000000 0.000000 1.000000
s off
g plantPlain_1
usemtl initialShadingGroup
f 1/1/1 2/2/2 4/4/3 3/3/4
