# This file uses centimeters as units for non-parametric coordinates.

mtllib MODEL_GrassRoots1_1.mtl
g default
v -13.412251 0.335012 0.000000
v 13.514439 0.335012 0.000000
v -13.412251 27.261705 0.000000
v 13.514439 27.261705 0.000000
vt 0.016136 0.541108
vt 0.197248 0.541108
vt 0.016136 0.722220
vt 0.197248 0.722220
vn 0.000000 0.000000 1.000000
vn 0.000000 0.000000 1.000000
vn 0.000000 0.000000 1.000000
vn 0.000000 0.000000 1.000000
s off
g plantPlain_10
usemtl initialShadingGroup
f 1/1/1 2/2/2 4/4/3 3/3/4
