# This file uses centimeters as units for non-parametric coordinates.

mtllib MODEL_BuffaloGrass_1.mtl
g default
v -13.364910 0.335012 0.000000
v 13.561779 0.335012 0.000000
v -13.364910 27.261705 0.000000
v 13.561779 27.261705 0.000000
vt 0.801555 0.541554
vt 0.982667 0.541554
vt 0.801555 0.722666
vt 0.982667 0.722666
vn 0.000000 0.000000 1.000000
vn 0.000000 0.000000 1.000000
vn 0.000000 0.000000 1.000000
vn 0.000000 0.000000 1.000000
s off
g plantPlain_8
usemtl initialShadingGroup
f 1/1/1 2/2/2 4/4/3 3/3/4
