# This file uses centimeters as units for non-parametric coordinates.

mtllib MODEL_ranunkBulbs_3.mtl
g default
v -1.244850 -0.629121 0.021060
v -0.210751 -0.656375 0.071963
v -1.215157 -0.493129 0.007529
v -0.247601 -0.176018 0.061095
v -1.215157 -0.493129 -0.007529
v -0.247601 -0.176018 -0.061095
v -1.244850 -0.629121 -0.021060
v -0.210751 -0.656375 -0.071963
v -0.655651 -0.913690 0.135248
v -0.655651 -0.913690 -0.135248
v -0.665806 -0.224630 -0.157128
v -0.665806 -0.224630 0.157128
v -1.282608 -0.553996 0.007302
v -0.654755 -0.562506 0.297618
v -0.117256 -0.336118 0.083953
v -0.117256 -0.336118 -0.083953
v -0.654755 -0.562506 -0.297618
v -1.282608 -0.553996 -0.007302
v -0.393894 -0.823541 0.114221
v -0.369652 -0.453359 0.308628
v -0.438522 -0.179707 0.148566
v -0.438522 -0.179707 -0.148566
v -0.369652 -0.453359 -0.308628
v -0.393894 -0.823541 -0.114221
v -0.899597 -0.884996 0.082791
v -0.899597 -0.884996 -0.082791
v -0.951797 -0.559963 -0.139628
v -0.898117 -0.343605 -0.097715
v -0.898117 -0.343605 0.097715
v -0.951797 -0.559963 0.139628
v -1.087292 -0.792821 0.031997
v -1.087292 -0.792821 -0.031997
v -1.143097 -0.555636 -0.083288
v -1.044537 -0.417407 -0.065866
v -1.044537 -0.417407 0.065866
v -1.143097 -0.555636 0.083288
v -0.002934 -0.164015 0.077256
v -0.002934 -0.164015 -0.077256
v -0.088902 -0.064331 -0.060859
v -0.088902 -0.064331 0.060859
v 0.107399 0.073000 0.087418
v 0.107399 0.073000 -0.087418
v 0.002926 0.111799 -0.065801
v 0.002926 0.111799 0.065801
v 0.196476 0.394141 0.136053
v 0.196476 0.394141 -0.118303
v -0.037769 0.394141 -0.086854
v -0.037769 0.394141 0.104603
v 0.196476 0.830616 0.173202
v 0.196476 0.830616 -0.081154
v -0.037769 0.830616 -0.049705
v -0.037769 0.830616 0.141752
v 0.164833 1.073696 0.183748
v 0.164833 1.073696 -0.057729
v -0.030766 1.073696 -0.027871
v -0.030766 1.073696 0.153891
v 6.228088 19.499859 0.478081
v 6.268803 19.526884 0.405937
v 6.061253 19.513332 0.390073
v 6.056946 19.472874 0.490829
v -9.818491 21.231419 0.164879
v -9.703838 21.361223 -0.004026
v -9.754179 21.434837 0.209897
v -9.668955 21.417160 0.080690
v 0.166828 0.918795 0.184412
v 0.166828 1.072922 -0.202856
v -0.032761 1.072922 -0.172835
v -0.032761 0.918795 0.154391
v 0.475533 22.360968 -1.140434
v 0.283363 22.340677 -1.247410
v 0.307278 22.437487 -1.219997
v 0.441673 22.445375 -1.074440
v -3.945610 18.902784 0.085352
v -3.952213 18.885586 -0.004210
v -4.149349 18.888170 -0.004246
v -4.144424 18.901138 0.063167
v -4.928131 11.824332 0.134741
v -4.895973 12.144280 0.175825
v -4.853363 12.135442 0.015492
v -4.870804 11.889235 -0.045440
v -1.890388 10.999793 0.134550
v -1.893690 10.991195 -0.030969
v -2.090057 10.992486 -0.016059
v -2.087595 10.998971 0.108529
v 0.321180 12.728498 -0.671645
v 0.125301 12.718352 -0.710122
v 0.138256 12.767144 -0.623934
v 0.303253 12.771089 -0.566084
v 3.212284 10.958553 0.307067
v 3.232639 10.972066 0.143817
v 3.128864 11.183528 0.154460
v 3.126713 11.163299 0.332016
v 2.005960 6.732788 0.238661
v 2.018175 6.740896 0.038969
v 1.955910 7.042363 0.060214
v 1.954618 7.030226 0.268490
v 0.244003 6.900710 -0.437251
v 0.046270 6.895638 -0.441479
v 0.053745 6.920421 -0.325903
v 0.234043 6.922393 -0.311906
v -0.862778 6.036744 0.159149
v -0.864429 6.032445 -0.044349
v -1.060411 6.033092 -0.021965
v -1.059181 6.036334 0.131210
v -7.416355 16.807667 0.149810
v -7.330366 16.905022 -0.024733
v -7.304203 17.056091 0.048091
v -7.368122 17.069351 0.192861
v -2.917999 14.972811 0.109951
v -3.116009 14.971577 0.085848
v -3.119703 14.961849 -0.010152
v -2.922951 14.959911 -0.017590
v 0.398357 18.556286 -0.906040
v 0.372463 18.619785 -0.820262
v 0.222767 18.613869 -0.921966
v 0.204332 18.541069 -0.978766
vt 0.289099 0.779631
vt 0.282633 0.769172
vt 0.292513 0.766710
vt 0.297128 0.776161
vt 0.241408 0.814175
vt 0.248795 0.819919
vt 0.241539 0.828367
vt 0.232307 0.823978
vt 0.275761 0.758155
vt 0.271969 0.749439
vt 0.284343 0.747049
vt 0.284894 0.754920
vt 0.215311 0.806091
vt 0.261705 0.780932
vt 0.264859 0.782612
vt 0.218676 0.805866
vt 0.268391 0.762963
vt 0.264183 0.758320
vt 0.224306 0.815469
vt 0.231510 0.810502
vt 0.279146 0.781919
vt 0.273063 0.775122
vt 0.293974 0.755220
vt 0.295454 0.750450
vt 0.252648 0.833504
vt 0.304406 0.763725
vt 0.260080 0.777615
vt 0.261616 0.777719
vt 0.304167 0.772996
vt 0.306504 0.777480
vt 0.263521 0.769042
vt 0.213766 0.817631
vt 0.219306 0.810256
vt 0.272411 0.787113
vt 0.272664 0.782241
vt 0.266856 0.778508
vt 0.260169 0.832929
vt 0.311399 0.765986
vt 0.313042 0.775537
vt 0.312060 0.771044
vt 0.319843 0.775871
vt 0.269577 0.831043
vt 0.319933 0.771337
vt 0.320869 0.767712
vt 0.082891 0.409401
vt 0.102550 0.409883
vt 0.022058 0.973379
vt 0.017833 0.975159
vt 0.030248 0.421200
vt 0.094394 0.424008
vt 0.099438 0.419934
vt 0.013539 0.966671
vt 0.638746 0.971719
vt 0.059651 0.409195
vt 0.638710 0.971720
vt 0.638724 0.971716
vt 0.346983 0.781386
vt 0.134433 0.411423
vt 0.639361 0.971386
vt 0.639363 0.971354
vt 0.639371 0.971334
vt 0.130353 0.411992
vt 0.351217 0.769263
vt 0.138838 0.410423
vt 0.636476 0.969458
vt 0.044458 0.417958
vt 0.636495 0.969436
vt 0.636481 0.969452
vt 0.122660 0.871691
vt 0.082143 0.907309
vt 0.106248 0.903542
vt 0.099868 0.902187
vt 0.636483 0.969427
vt 0.102393 0.900713
vt 0.016632 0.421165
vt 0.022147 0.419191
vt 0.013156 0.417984
vt 0.031786 0.964691
vt 0.063454 0.925434
vt 0.639379 0.971316
vt 0.044281 0.937845
vt 0.064332 0.927549
vt 0.638757 0.971720
vt 0.068721 0.927606
vt 0.122002 0.412324
vt 0.142193 0.871397
vt 0.136188 0.872101
vt 0.137734 0.872339
vt 0.639101 0.971408
vt 0.639102 0.971407
vt 0.639086 0.971420
vt 0.639096 0.971412
vt 0.009636 0.419249
vt 0.276055 0.819839
vt 0.034002 0.963839
vt 0.086585 0.905720
vt 0.332510 0.763094
vt 0.108189 0.904971
vt 0.268424 0.827041
vt 0.322440 0.761461
vt 0.261219 0.828154
vt 0.313283 0.760344
vt 0.225419 0.808670
vt 0.279888 0.789011
vt 0.261232 0.767978
vt 0.216333 0.825287
vt 0.254415 0.825830
vt 0.306877 0.757638
vt 0.292031 0.790064
vt 0.222120 0.833047
vt 0.231268 0.838988
vt 0.241239 0.840400
vt 0.301616 0.785740
vt 0.261248 0.781208
vt 0.214334 0.809114
vt 0.264681 0.783174
vt 0.062857 0.409041
vt 0.117635 0.411363
vt 0.363271 0.768714
vt 0.144243 0.871026
vt 0.351190 0.792423
vt 0.048954 0.417865
vt 0.049185 0.937434
vt 0.367944 0.766299
vt 0.070448 0.409238
vt 0.070440 0.925807
vt 0.348109 0.788636
vt 0.044082 0.411892
vt 0.017233 0.698162
vt 0.013347 0.692328
vt 0.009895 0.691427
vt 0.031017 0.692946
vt 0.034037 0.688070
vt 0.022103 0.696285
vt 0.140515 0.640910
vt 0.144264 0.641001
vt 0.122331 0.642007
vt 0.117949 0.641079
vt 0.133271 0.642047
vt 0.136083 0.641881
vt 0.070444 0.667522
vt 0.044369 0.677902
vt 0.049070 0.677649
vt 0.061552 0.667315
vt 0.063594 0.668295
vt 0.067979 0.668366
vt 0.104399 0.656713
vt 0.108212 0.658981
vt 0.082517 0.658355
vt 0.086127 0.662315
vt 0.097130 0.663097
vt 0.100916 0.660323
vt 0.103660 0.557981
vt 0.108221 0.560586
vt 0.082667 0.558773
vt 0.085943 0.564953
vt 0.096036 0.567462
vt 0.100325 0.564168
vt 0.070446 0.538379
vt 0.044414 0.547930
vt 0.049012 0.547757
vt 0.060601 0.538255
vt 0.063226 0.538668
vt 0.067608 0.538745
vt 0.139676 0.525667
vt 0.144276 0.525988
vt 0.122495 0.756850
vt 0.118107 0.755937
vt 0.131811 0.527019
vt 0.135258 0.526652
vt 0.016932 0.559663
vt 0.034020 0.825954
vt 0.022125 0.557738
vt 0.009766 0.555339
vt 0.031401 0.828818
vt 0.013252 0.555156
vt 0.141354 0.756153
vt 0.136909 0.757111
vt 0.117792 0.526221
vt 0.134729 0.757074
vt 0.144254 0.756013
vt 0.122166 0.527166
vt 0.070442 0.796663
vt 0.044325 0.807873
vt 0.068350 0.797986
vt 0.063963 0.797922
vt 0.049128 0.807542
vt 0.062503 0.796374
vt 0.357017 0.775225
vt 0.353838 0.781957
vt 0.350430 0.787829
vt 0.118264 0.870794
vt 0.067237 0.409125
vt 0.144287 0.410976
vt 0.342385 0.784369
vt 0.288983 0.810293
vt 0.049348 0.411821
vt 0.010154 0.963606
vt 0.334438 0.771797
vt 0.358375 0.763240
vt 0.294054 0.817326
vt 0.085669 0.418910
vt 0.328127 0.775195
vt 0.034073 0.412300
vt 0.348895 0.763254
vt 0.281126 0.826873
vt 0.108234 0.412992
vt 0.336133 0.771848
vn -0.326608 0.733799 0.595707
vn -0.147485 -0.101919 0.983799
vn 0.303036 -0.005459 0.952963
vn 0.009139 0.786847 0.617080
vn -0.326608 0.733799 -0.595707
vn 0.009139 0.786847 -0.617080
vn 0.303036 -0.005459 -0.952963
vn -0.147485 -0.101919 -0.983799
vn -0.019039 -0.726356 0.687055
vn -0.019039 -0.726355 -0.687056
vn 0.429885 -0.671449 -0.603618
vn 0.429885 -0.671449 0.603618
vn -0.538816 0.014216 -0.842303
vn -0.538817 0.014216 0.842303
vn -0.488021 0.693078 0.530545
vn -0.488021 0.693078 -0.530545
vn -0.354949 -0.626554 0.693860
vn -0.354949 -0.626554 -0.693860
vn -0.377236 -0.044418 -0.925051
vn -0.495404 0.646649 -0.580018
vn -0.495404 0.646649 0.580018
vn -0.377236 -0.044418 0.925051
vn 0.777531 -0.430177 0.458687
vn 0.777531 -0.430177 -0.458687
vn 0.754287 -0.092053 -0.650060
vn 0.754287 -0.092053 0.650060
vn -0.550211 -0.388280 -0.739261
vn -0.550211 -0.388280 0.739261
vn 0.131213 0.752001 0.645971
vn 0.131213 0.752001 -0.645971
vn -0.457742 -0.503166 0.733005
vn -0.457742 -0.503166 -0.733005
vn -0.368482 -0.021519 -0.929386
vn -0.435874 0.658274 -0.613750
vn -0.435874 0.658274 0.613750
vn -0.368482 -0.021519 0.929386
vn 0.680158 -0.359820 -0.638683
vn 0.680158 -0.359820 0.638683
vn -0.498451 0.404321 -0.766858
vn -0.498451 0.404321 0.766858
vn 0.012968 0.981768 -0.189638
vn 0.012968 0.981768 -0.189638
vn 0.012968 0.981768 -0.189638
vn 0.012968 0.981768 -0.189638
vn -0.665835 0.007631 -0.746060
vn 0.758125 -0.310575 -0.573402
vn -0.676848 -0.024033 0.735731
vn 0.756621 -0.330873 0.563957
vn 0.946822 -0.268877 -0.176727
vn 0.938214 -0.282512 0.199852
vn -0.831013 -0.340248 -0.440056
vn -0.918679 -0.387438 0.076950
vn 0.734650 -0.261445 0.626048
vn 0.580546 -0.172809 -0.795678
vn -0.390434 0.171613 -0.904495
vn -0.547281 0.182933 0.816712
vn 0.663186 0.289232 -0.690311
vn -0.671381 0.208753 -0.711105
vn -0.226973 -0.095495 -0.969208
vn -0.856035 -0.449773 0.254772
vn 0.448987 0.273440 0.850671
vn 0.864998 0.500564 0.034837
vn -0.556897 0.150576 0.816819
vn 0.290539 0.125059 0.948656
vn 0.832243 -0.043011 -0.552741
vn 0.074949 -0.054814 -0.995680
vn -0.681593 0.082371 0.727080
vn -0.464470 0.084374 0.881561
vn -0.604078 -0.043346 -0.795745
vn -0.814291 -0.012364 0.580326
vn -0.663224 -0.129669 0.737102
vn -0.996787 -0.079365 0.010836
vn 0.783052 0.088338 0.615651
vn 0.744892 0.154066 0.649153
vn 0.536694 -0.057584 -0.841810
vn 0.979126 0.131814 0.154716
vn 0.719115 -0.242529 0.651194
vn 0.729650 -0.222420 -0.646638
vn -0.577739 0.210472 -0.788619
vn -0.568715 0.165987 0.805613
vn -0.396369 -0.177488 -0.900772
vn -0.778823 -0.344521 0.524156
vn -0.866832 -0.443834 0.227188
vn -0.365869 -0.188415 -0.911395
vn 0.609509 0.268258 0.746014
vn 0.390804 0.199171 0.898667
vn 0.876820 0.396860 -0.271458
vn 0.877188 0.456880 -0.147656
vn 0.641499 -0.041366 -0.766008
vn -0.283881 -0.036948 -0.958148
vn -0.048119 -0.051452 -0.997515
vn 0.719770 -0.047940 -0.692555
vn -0.622860 0.045461 0.781011
vn -0.659821 0.054400 0.749451
vn 0.246365 0.042269 0.968255
vn -0.094656 0.058068 0.993815
vn 0.583807 0.137649 0.800139
vn 0.599220 0.137756 -0.788644
vn 0.504074 0.133075 -0.853347
vn 0.470399 0.127866 0.873141
vn -0.589162 -0.131865 -0.797182
vn -0.475785 -0.121569 -0.871120
vn -0.595575 -0.132156 0.792354
vn -0.499426 -0.125017 0.857289
vn 0.663727 0.141148 0.734537
vn 0.667365 0.139720 -0.731507
vn -0.664265 -0.136343 -0.734958
vn -0.667320 -0.134921 0.732449
vn 0.575189 -0.042559 -0.816913
vn -0.514067 -0.029632 -0.857238
vn -0.565283 0.046798 0.823569
vn 0.502462 0.034274 0.863920
vn 0.814751 -0.241494 0.527125
vn 0.766240 -0.204838 -0.609030
vn -0.837873 0.249116 -0.485706
vn -0.829093 0.226788 0.511051
vn 0.303593 0.085398 0.948967
vn -0.467600 -0.117320 0.876120
vn -0.512935 -0.132095 -0.848203
vn 0.430780 0.114830 -0.895122
s 1
g geo_plantBulb_low
usemtl lambert2SG
f 12/1/1 14/2/2 20/3/3 21/4/4
f 11/109/5 12/1/1 21/4/4 22/113/6
f 22/6/6 23/7/7 17/8/8 11/5/5
f 9/9/9 10/10/10 24/11/11 19/12/12
f 18/114/13 13/14/14 3/15/15 5/116/16
f 25/17/17 26/18/18 10/10/10 9/9/9
f 27/19/19 28/20/20 11/5/5 17/8/8
f 28/104/20 29/21/21 12/1/1 11/109/5
f 29/21/21 30/22/22 14/2/2 12/1/1
f 30/22/22 25/17/17 9/9/9 14/2/2
f 19/12/12 20/3/3 14/2/2 9/9/9
f 2/23/23 8/24/24 16/108/25 15/26/26
f 10/110/10 17/8/8 23/7/7 24/111/11
f 26/106/18 27/19/19 17/8/8 10/110/10
f 7/27/27 1/28/28 13/14/14 18/114/13
f 15/26/26 20/3/3 19/12/12 2/23/23
f 21/4/4 20/3/3 15/26/26 4/29/29
f 22/113/6 21/4/4 4/29/29 6/30/30
f 16/25/25 23/7/7 22/6/6 6/107/30
f 24/111/11 23/7/7 16/25/25 8/112/24
f 19/12/12 24/11/11 8/24/24 2/23/23
f 31/31/31 32/105/32 26/18/18 25/17/17
f 32/32/32 33/33/33 27/19/19 26/106/18
f 33/33/33 34/103/34 28/20/20 27/19/19
f 34/34/34 35/35/35 29/21/21 28/104/20
f 35/35/35 36/36/36 30/22/22 29/21/21
f 36/36/36 31/31/31 25/17/17 30/22/22
f 7/27/27 32/105/32 31/31/31 1/28/28
f 18/13/13 33/33/33 32/32/32 7/115/27
f 5/16/16 34/103/34 33/33/33 18/13/13
f 3/15/15 35/35/35 34/34/34 5/116/16
f 13/14/14 36/36/36 35/35/35 3/15/15
f 1/28/28 31/31/31 36/36/36 13/14/14
f 15/26/26 16/108/25 38/102/37 37/38/38
f 16/25/25 6/107/30 39/101/39 38/37/37
f 6/30/30 4/29/29 40/40/40 39/39/39
f 4/29/29 15/26/26 37/38/38 40/40/40
s off
f 73/92/41 74/91/42 75/90/43 76/89/44
s 1
f 38/37/37 39/101/39 43/99/45 42/42/46
f 39/39/39 40/40/40 44/43/47 43/41/45
f 40/40/40 37/38/38 41/44/48 44/43/47
f 41/44/48 42/100/46 46/97/49 45/208/50
f 42/42/46 43/99/45 47/94/51 46/206/49
f 43/41/45 44/43/47 48/199/52 47/203/51
f 44/43/47 41/44/48 45/208/50 48/199/52
f 57/53/53 58/83/54 59/55/55 60/56/56
f 46/206/49 47/94/51 51/196/57 50/201/58
f 62/59/59 61/60/60 63/61/61 64/80/62
f 48/199/52 45/208/50 49/205/63 52/195/64
f 69/65/65 70/73/66 71/67/67 72/68/68
f 67/121/69 68/57/70 56/190/71 55/191/72
f 68/57/70 65/63/73 53/189/74 56/190/71
f 65/63/73 66/124/75 54/119/76 53/189/74
f 89/147/77 90/148/78 58/98/54 57/71/53
f 90/149/78 91/150/79 59/96/55 58/70/54
f 91/151/79 92/152/80 60/74/56 59/72/55
f 92/152/80 89/147/77 57/71/53 60/74/56
f 80/134/81 77/129/82 105/171/83 106/173/84
f 77/129/82 78/130/85 108/176/86 105/171/83
f 78/130/85 79/131/87 107/174/88 108/176/86
f 79/132/87 80/133/81 106/172/84 107/175/88
f 50/200/58 66/124/75 65/63/73 49/205/63
f 50/128/58 51/197/57 67/122/69 66/66/75
f 51/127/57 52/195/64 68/57/70 67/121/69
f 52/195/64 49/205/63 65/63/73 68/57/70
f 85/142/89 86/143/90 116/187/91 113/184/92
f 86/144/90 87/145/93 115/186/94 116/188/91
f 87/145/93 88/146/95 114/185/96 115/186/94
f 88/146/95 85/141/89 113/183/92 114/185/96
f 37/38/38 38/102/37 42/100/46 41/44/48
f 81/135/97 82/136/98 112/181/99 109/177/100
f 82/137/98 83/138/101 111/179/102 112/182/99
f 83/139/101 84/140/103 110/178/104 111/180/102
f 84/140/103 81/135/97 109/177/100 110/178/104
f 48/48/52 52/52/64 78/130/85 77/129/82
f 52/52/64 51/198/57 79/131/87 78/130/85
f 51/49/57 47/204/51 80/133/81 79/132/87
f 47/47/51 48/48/52 77/129/82 80/134/81
f 101/165/105 102/166/106 82/136/98 81/135/97
f 102/167/106 103/168/107 83/138/101 82/137/98
f 103/169/107 104/170/108 84/140/103 83/139/101
f 104/170/108 101/165/105 81/135/97 84/140/103
f 97/160/109 98/161/110 86/143/90 85/142/89
f 98/162/110 99/163/111 87/145/93 86/144/90
f 99/163/111 100/164/112 88/146/95 87/145/93
f 100/164/112 97/159/109 85/141/89 88/146/95
f 93/153/113 94/154/114 90/148/78 89/147/77
f 94/155/114 95/156/115 91/150/79 90/149/78
f 95/157/115 96/158/116 92/152/80 91/151/79
f 96/158/116 93/153/113 89/147/77 92/152/80
f 45/46/50 46/207/49 94/154/114 93/153/113
f 46/45/49 50/202/58 95/156/115 94/155/114
f 50/50/58 49/51/63 96/158/116 95/157/115
f 49/51/63 45/46/50 93/153/113 96/158/116
f 66/66/75 67/122/69 98/161/110 97/160/109
f 67/54/69 55/117/72 99/163/111 98/162/110
f 55/117/72 54/193/76 100/164/112 99/163/111
f 54/193/76 66/125/75 97/159/109 100/164/112
f 53/64/74 54/194/76 102/166/106 101/165/105
f 54/69/76 55/192/72 103/168/107 102/167/106
f 55/62/72 56/58/71 104/170/108 103/169/107
f 56/58/71 53/64/74 101/165/105 104/170/108
f 106/173/84 105/171/83 61/75/60 62/76/59
f 107/175/88 106/172/84 62/95/59 64/78/62
f 108/176/86 107/174/88 64/93/62 63/77/61
f 105/171/83 108/176/86 63/77/61 61/75/60
f 110/178/104 109/177/100 73/86/117 76/88/118
f 111/180/102 110/178/104 76/88/118 75/87/119
f 112/182/99 111/179/102 75/118/119 74/85/120
f 109/177/100 112/181/99 74/120/120 73/86/117
f 114/185/96 113/183/92 69/126/65 72/84/68
f 115/186/94 114/185/96 72/84/68 71/82/67
f 116/188/91 115/186/94 71/82/67 70/79/66
f 113/184/92 116/187/91 70/123/66 69/81/65
g default
v -10.786400 -19.199070 0.000000
v 9.803318 -19.199070 0.000000
v -10.786400 1.390648 0.000000
v 9.803318 1.390648 0.000000
vt 0.337562 0.352749
vt 0.655510 0.352749
vt 0.337562 0.670698
vt 0.655510 0.670698
vn 0.000000 0.000000 1.000000
vn 0.000000 0.000000 1.000000
vn 0.000000 0.000000 1.000000
vn 0.000000 0.000000 1.000000
s off
g geo_plantBulb_low geo_roots_plane
usemtl lambert2SG
f 117/209/121 118/210/122 120/212/123 119/211/124
g default
v -11.263496 -0.541400 3.829492
v 11.129425 -0.541400 -3.695139
v -11.263496 20.135162 3.829492
v 11.129425 20.135162 -3.695139
vt 0.655558 0.015710
vt 0.337404 0.015710
vt 0.655558 0.333864
vt 0.337404 0.333864
vn 0.318525 0.000000 0.947915
vn 0.318525 0.000000 0.947915
vn 0.318525 0.000000 0.947915
vn 0.318525 0.000000 0.947915
s off
g geo_plantBulb_low geo_roots_plane2
usemtl lambert2SG
f 121/213/125 122/214/126 124/216/127 123/215/128
g default
v -11.377491 -0.541400 -3.337133
v 11.243420 -0.541400 3.471487
v -11.377491 20.135162 -3.337133
v 11.243420 20.135162 3.471487
vt 0.337404 0.015710
vt 0.655558 0.015710
vt 0.337404 0.333864
vt 0.655558 0.333864
vn -0.288216 0.000000 0.957566
vn -0.288216 0.000000 0.957566
vn -0.288216 0.000000 0.957566
vn -0.288216 0.000000 0.957566
s off
g geo_plantBulb_low geo_roots_plane3
usemtl lambert2SG
f 125/217/129 126/218/130 128/220/131 127/219/132
g default
v -10.809906 20.794903 0.124481
v -8.743610 20.794903 0.124481
v -10.809906 22.861198 0.124481
v -8.743610 22.861198 0.124481
vt 0.010053 0.010893
vt 0.086733 0.010893
vt 0.010053 0.087573
vt 0.086733 0.087573
vn 0.000000 0.000000 1.000000
vn 0.000000 0.000000 1.000000
vn 0.000000 0.000000 1.000000
vn 0.000000 0.000000 1.000000
s off
g geo_plantBulb_low bulb_plain
usemtl lambert2SG
f 129/221/133 130/222/134 132/224/135 131/223/136
g default
v -0.432174 21.907181 -1.861400
v 1.132543 21.907181 -0.511866
v -0.375472 23.971653 -1.927142
v 1.189244 23.971653 -0.577608
vt 0.010053 0.010893
vt 0.086733 0.010893
vt 0.010053 0.087573
vt 0.086733 0.087573
vn -0.652540 0.042016 0.756588
vn -0.652540 0.042016 0.756588
vn -0.652540 0.042016 0.756588
vn -0.652540 0.042016 0.756588
s off
g geo_plantBulb_low bulb_plain1
usemtl lambert2SG
f 133/225/137 134/226/138 136/228/139 135/227/140
g default
v -5.097112 18.387737 0.048951
v -3.030816 18.387737 0.048951
v -5.097112 20.454033 0.048951
v -3.030816 20.454033 0.048951
vt 0.010053 0.010893
vt 0.086733 0.010893
vt 0.010053 0.087573
vt 0.086733 0.087573
vn 0.000000 0.000000 1.000000
vn 0.000000 0.000000 1.000000
vn 0.000000 0.000000 1.000000
vn 0.000000 0.000000 1.000000
s off
g geo_plantBulb_low bulb_plain2
usemtl lambert2SG
f 137/229/141 138/230/142 140/232/143 139/231/144
g default
v 5.075065 19.042362 0.470107
v 7.141360 19.042362 0.470107
v 5.075065 21.108658 0.470107
v 7.141360 21.108658 0.470107
vt 0.010053 0.010893
vt 0.086733 0.010893
vt 0.010053 0.087573
vt 0.086733 0.087573
vn 0.000000 0.000000 1.000000
vn 0.000000 0.000000 1.000000
vn 0.000000 0.000000 1.000000
vn 0.000000 0.000000 1.000000
s off
g geo_plantBulb_low bulb_plain3
usemtl lambert2SG
f 141/233/145 142/234/146 144/236/147 143/235/148
